{"title":"Jennifer Lopez ft. Iggy Azalea - Booty (2014.Dance)","uid":11066005,"size":126974954,"categoryP":"video","categoryS":"music_videos","magnet":"?xt=urn:btih:69260466d12f29fd4c1b915232f532cc33abf06c&amp;dn=Jennifer+Lopez+ft.+Iggy+Azalea+-+Booty+%282014.Dance%29&amp;tr=udp%3A%2F%2Ftracker.openbittorrent.com%3A80&amp;tr=udp%3A%2F%2Fopen.demonii.com%3A1337&amp;tr=udp%3A%2F%2Ftracker.coppersurfer.tk%3A6969&amp;tr=udp%3A%2F%2Fexodus.desync.com%3A6969","seeders":1,"leechers":0,"uploader":"MeRaDil","files":-1,"time":1411223707,"description":"JENNIFER LOPEZ ft.IGGY AZALEA - BOOTY\n\n\n\nMPEG4 PROMO MUSIC VID\n\n &lt;a href=&quot;\nhttp://gifyu.com/images/booty1.jpg&quot; rel=&quot;nofollow&quot; target=&quot;_NEW&quot;&gt;\nhttp://gifyu.com/images/booty1.jpg&lt;/a&gt;\n &lt;a href=&quot;\nhttp://gifyu.com/images/booty2.jpg&quot; rel=&quot;nofollow&quot; target=&quot;_NEW&quot;&gt;\nhttp://gifyu.com/images/booty2.jpg&lt;/a&gt;\n &lt;a href=&quot;\nhttp://gifyu.com/images/JenniferLopez.png&quot; rel=&quot;nofollow&quot; target=&quot;_NEW&quot;&gt;\nhttp://gifyu.com/images/JenniferLopez.png&lt;/a&gt;\n\n\nGeneral\nFormat                                   : MPEG-4\nFormat profile                           : Base Media\nCodec ID                                 : isom\nFile size                                : 121 MiB\nDuration                                 : 4mn 16s\nOverall bit rate                         : 3 955 Kbps\nMovie name                               : Booty\nMovie name/More                          : Jennifer Lopez &amp; Iggy Azalea\nAlbum                                    : A.K.A\nPerformer                                : Jennifer Lopez ft. Iggy Azalea\nGenre                                    : Dance\nContentType                              : Music Video\nRecorded date                            : 2014\nCopyright                                : Jennifer Lopez\nCover                                    : Yes\nMake                                     : MeRaDil\noday                                     : 18-09-2014  USA\nurl                                      : www.jenniferlopez.com\nlabl                                     : Capitol\nrel.date                                 : USA . september 18 . 2014\nPart_ID                                  : Booty\n\nVideo\nID                                       : 1\nFormat                                   : AVC\nFormat/Info                              : Advanced Video Codec\nFormat profile                           : &lt;a class=&quot;__cf_email__&quot; href=&quot;/cdn-cgi/l/email-protection&quot; data-cfemail=&quot;9dd5f4faf5ddd1a9b3ad&quot;&gt;[email&amp;#160;protected]&lt;/a&gt;&lt;script data-cfhash='f9e31' type=&quot;text/javascript&quot;&gt;\n/* &lt;![CDATA[ */!function(){try{var t=&quot;currentScript&quot;in document?document.currentScript:function(){for(var t=document.getElementsByTagName(&quot;script&quot;),e=t.length;e--;)if(t[e].getAttribute(&quot;data-cfhash&quot;))return t[e]}();if(t&amp;&amp;t.previousSibling){var e,r,n,i,c=t.previousSibling,a=c.getAttribute(&quot;data-cfemail&quot;);if(a){for(e=&quot;&quot;,r=parseInt(a.substr(0,2),16),n=2;a.length-n;n+=2)i=parseInt(a.substr(n,2),16)^r,e+=String.fromCharCode(i);e=document.createTextNode(e),c.parentNode.replaceChild(e,c)}t.parentNode.removeChild(t);}}catch(u){}}()/* ]]&gt; */&lt;/script&gt;\nFormat settings, CABAC                   : Yes\nFormat settings, ReFrames                : 2 frames\nCodec ID                                 : avc1\nCodec ID/Info                            : Advanced Video Coding\nDuration                                 : 4mn 16s\nBit rate                                 : 3 691 Kbps\nWidth                                    : 1 920 pixels\nHeight                                   : 1 080 pixels\nDisplay aspect ratio                     : 16:9\nFrame rate mode                          : Variable\nFrame rate                               : 23.976 fps\nMinimum frame rate                       : 23.974 fps\nMaximum frame rate                       : 23.981 fps\nColor space                              : YUV\nChroma subsampling                       : 4:2:0\nBit depth                                : 8 bits\nScan type                                : Progressive\nBits/(Pixel*Frame)                       : 0.074\nStream size                              : 113 MiB (93%)\n\nAudio\nID                                       : 2\nFormat                                   : AAC\nFormat/Info                              : Advanced Audio Codec\nFormat profile                           : LC\nCodec ID                                 : 40\nDuration                                 : 4mn 16s\nBit rate mode                            : Constant\nBit rate                                 : 256 Kbps\nChannel(s)                               : 2 channels\nChannel positions                        : Front: L R\nSampling rate                            : 44.1 KHz\nCompression mode                         : Lossy\nStream size                              : 7.84 MiB (6%)\n &lt;a href=&quot;\nhttps://thepiratebay.se/user/MeRaDil&quot; rel=&quot;nofollow&quot; target=&quot;_NEW&quot;&gt;\nhttps://thepiratebay.se/user/MeRaDil&lt;/a&gt;\n\n:)\n","torrent":{"xt":"urn:btih:69260466d12f29fd4c1b915232f532cc33abf06c","amp;dn":"Jennifer+Lopez+ft.+Iggy+Azalea+-+Booty+%282014.Dance%29","amp;tr":["udp%3A%2F%2Ftracker.openbittorrent.com%3A80","udp%3A%2F%2Fopen.demonii.com%3A1337","udp%3A%2F%2Ftracker.coppersurfer.tk%3A6969","udp%3A%2F%2Fexodus.desync.com%3A6969"],"infoHash":"69260466d12f29fd4c1b915232f532cc33abf06c","infoHashBuffer":{"type":"Buffer","data":[105,38,4,102,209,47,41,253,76,27,145,82,50,245,50,204,51,171,240,108]},"announce":[],"urlList":[]}}